<?xml version="1.0" encoding="UTF-8"?>
<svg xmlns="http://www.w3.org/2000/svg" viewBox="0 0 120 138" width="480" height="552">
  <defs>
    <clipPath id="shield-clip">
      <path d="M60 2L8 18V58C8 96 60 134 60 134C60 134 112 96 112 58V18L60 2Z"/>
    </clipPath>
  </defs>
  <!-- Shield body -->
  <path d="M60 2L8 18V58C8 96 60 134 60 134C60 134 112 96 112 58V18L60 2Z" fill="#3B82F6"/>
  <!-- Inner outline -->
  <path d="M60 9L15 23V58C15 90 60 122 60 122C60 122 105 90 105 58V23L60 9Z" fill="none" stroke="#ffffff" stroke-opacity="0.18" stroke-width="1"/>
  <!-- Skyline -->
  <g clip-path="url(#shield-clip)">
    <g fill="#ffffff">
      <rect x="16" y="80" width="14" height="54"/>
      <rect x="32" y="66" width="14" height="68"/>
      <rect x="48" y="46" width="18" height="88"/>
      <rect x="68" y="56" width="14" height="78"/>
      <rect x="84" y="74" width="14" height="60"/>
    </g>
    <!-- Tiny navy windows on tallest tower -->
    <g fill="#3B82F6">
      <rect x="52" y="52" width="2" height="3"/>
      <rect x="58" y="52" width="2" height="3"/>
      <rect x="62" y="52" width="2" height="3"/>
      <rect x="52" y="60" width="2" height="3"/>
      <rect x="58" y="60" width="2" height="3"/>
      <rect x="62" y="60" width="2" height="3"/>
      <rect x="52" y="68" width="2" height="3"/>
      <rect x="58" y="68" width="2" height="3"/>
      <rect x="62" y="68" width="2" height="3"/>
    </g>
  </g>
</svg>
